<?xml version="1.0" encoding="UTF-8" standalone="no"?>
<svg
   xmlns:dc="http://purl.org/dc/elements/1.1/"
   xmlns:cc="http://creativecommons.org/ns#"
   xmlns:rdf="http://www.w3.org/1999/02/22-rdf-syntax-ns#"
   xmlns:svg="http://www.w3.org/2000/svg"
   xmlns="http://www.w3.org/2000/svg"
   xmlns:sodipodi="http://sodipodi.sourceforge.net/DTD/sodipodi-0.dtd"
   xmlns:inkscape="http://www.inkscape.org/namespaces/inkscape"
   width="600"
   height="183"
   viewBox="0 0 158.75 48.418751"
   version="1.1"
   id="svg8"
   inkscape:version="1.0.2-2 (e86c870879, 2021-01-15)">
  <defs
     id="defs2" />
  <sodipodi:namedview
     id="base"
     pagecolor="#ffffff"
     bordercolor="#666666"
     borderopacity="1.0"
     inkscape:pageopacity="0.0"
     inkscape:pageshadow="2"
     inkscape:zoom="0.7"
     inkscape:cx="161.95763"
     inkscape:cy="94.694742"
     inkscape:document-units="mm"
     inkscape:current-layer="text891"
     inkscape:document-rotation="0"
     showgrid="false"
     units="px"
     inkscape:window-width="1180"
     inkscape:window-height="738"
     inkscape:window-x="78"
     inkscape:window-y="0"
     inkscape:window-maximized="0" />
  <metadata
     id="metadata5">
    <rdf:RDF>
      <cc:Work
         rdf:about="">
        <dc:format>image/svg+xml</dc:format>
        <dc:type
           rdf:resource="http://purl.org/dc/dcmitype/StillImage" />
        <dc:title></dc:title>
      </cc:Work>
    </rdf:RDF>
  </metadata>
  <g
     inkscape:label="Layer 1"
     inkscape:groupmode="layer"
     id="layer1">
    <g
       id="g1083"
       transform="matrix(1.0794495,0,0,1.0794495,-4.1945064,-53.118979)"
       style="stroke-width:0.926398">
      <g
         aria-label="SMA NEGERI 81 "
         id="text891"
         style="font-style:normal;font-variant:normal;font-weight:bold;font-stretch:normal;font-size:11.5614px;line-height:1.25;font-family:Arial;-inkscape-font-specification:'Arial, Bold';font-variant-ligatures:normal;font-variant-caps:normal;font-variant-numeric:normal;font-variant-east-asian:normal;fill:#132384;fill-opacity:1;stroke:none;stroke-width:0.245109">
        <path
           d="m 53.83631,64.379468 1.625822,-0.158066 q 0.146775,0.818556 0.592747,1.20243 0.451617,0.383875 1.213722,0.383875 0.807265,0 1.213721,-0.338713 0.4121,-0.344358 0.4121,-0.801621 0,-0.293551 -0.175001,-0.496778 -0.169357,-0.208873 -0.598393,-0.361294 -0.293551,-0.101614 -1.337916,-0.361294 -1.343561,-0.333068 -1.885502,-0.818556 -0.762104,-0.683071 -0.762104,-1.665339 0,-0.632264 0.355649,-1.17985 0.361293,-0.553231 1.033074,-0.841137 0.677426,-0.287906 1.631467,-0.287906 1.55808,0 2.342764,0.683071 0.790331,0.683072 0.829847,1.823405 l -1.670984,0.07339 q -0.107259,-0.63791 -0.462907,-0.914525 -0.350004,-0.282261 -1.055655,-0.282261 -0.728233,0 -1.140334,0.299197 -0.265325,0.191937 -0.265325,0.513714 0,0.293551 0.248389,0.502424 0.316133,0.265325 1.535499,0.553231 1.219366,0.287906 1.800824,0.598393 0.587102,0.304842 0.914524,0.841137 0.333068,0.53065 0.333068,1.315335 0,0.711297 -0.395165,1.332271 -0.395165,0.620974 -1.117753,0.925815 -0.722587,0.299197 -1.800823,0.299197 -1.56937,0 -2.410507,-0.722588 -0.841137,-0.728233 -1.004848,-2.116955 z"
           style="font-style:normal;font-variant:normal;font-weight:bold;font-stretch:normal;font-size:11.5614px;font-family:Arial;-inkscape-font-specification:'Arial, Bold';font-variant-ligatures:normal;font-variant-caps:normal;font-variant-numeric:normal;font-variant-east-asian:normal;fill:#132384;fill-opacity:1;stroke-width:0.245109"
           id="path897" />
        <path
           d="M 61.948484,67.072235 V 58.79635 h 2.50083 l 1.501627,5.645215 1.484692,-5.645215 h 2.506475 v 8.275885 h -1.552434 v -6.514578 l -1.642757,6.514578 H 65.13803 l -1.637112,-6.514578 v 6.514578 z"
           style="font-style:normal;font-variant:normal;font-weight:bold;font-stretch:normal;font-size:11.5614px;font-family:Arial;-inkscape-font-specification:'Arial, Bold';font-variant-ligatures:normal;font-variant-caps:normal;font-variant-numeric:normal;font-variant-east-asian:normal;fill:#132384;fill-opacity:1;stroke-width:0.245109"
           id="path899" />
        <path
           d="M 79.064777,67.072235 H 77.247018 L 76.52443,65.192378 h -3.308096 l -0.683071,1.879857 h -1.772597 l 3.223418,-8.275885 h 1.766952 z M 75.988135,63.79801 74.847802,60.727013 73.730049,63.79801 Z"
           style="font-style:normal;font-variant:normal;font-weight:bold;font-stretch:normal;font-size:11.5614px;font-family:Arial;-inkscape-font-specification:'Arial, Bold';font-variant-ligatures:normal;font-variant-caps:normal;font-variant-numeric:normal;font-variant-east-asian:normal;fill:#132384;fill-opacity:1;stroke-width:0.245109"
           id="path901" />
        <path
           d="M 82.751101,67.072235 V 58.79635 h 1.625822 l 3.387129,5.526665 V 58.79635 h 1.552434 v 8.275885 H 87.639857 L 84.303535,61.67541 v 5.396825 z"
           style="font-style:normal;font-variant:normal;font-weight:bold;font-stretch:normal;font-size:11.5614px;font-family:Arial;-inkscape-font-specification:'Arial, Bold';font-variant-ligatures:normal;font-variant-caps:normal;font-variant-numeric:normal;font-variant-east-asian:normal;fill:#132384;fill-opacity:1;stroke-width:0.245109"
           id="path903" />
        <path
           d="M 91.083439,67.072235 V 58.79635 h 6.136349 v 1.400013 h -4.465365 v 1.834695 h 4.154878 v 1.394368 h -4.154878 v 2.252441 h 4.623431 v 1.394368 z"
           style="font-style:normal;font-variant:normal;font-weight:bold;font-stretch:normal;font-size:11.5614px;font-family:Arial;-inkscape-font-specification:'Arial, Bold';font-variant-ligatures:normal;font-variant-caps:normal;font-variant-numeric:normal;font-variant-east-asian:normal;fill:#132384;fill-opacity:1;stroke-width:0.245109"
           id="path905" />
        <path
           d="m 102.64484,64.029464 v -1.394368 h 3.60165 v 3.296806 q -0.52501,0.508069 -1.52421,0.897589 -0.99356,0.383874 -2.01534,0.383874 -1.2984,0 -2.26373,-0.54194 -0.965335,-0.547586 -1.450824,-1.55808 -0.485488,-1.016138 -0.485488,-2.207279 0,-1.292754 0.54194,-2.297602 0.541941,-1.004848 1.586302,-1.541144 0.79598,-0.412101 1.98147,-0.412101 1.54115,0 2.40487,0.6492 0.86936,0.643555 1.11775,1.783888 l -1.65969,0.310487 q -0.17501,-0.609683 -0.66049,-0.959687 -0.47985,-0.355648 -1.20244,-0.355648 -1.09517,0 -1.74437,0.694361 -0.64355,0.694362 -0.64355,2.060504 0,1.473401 0.65484,2.212924 0.65485,0.733878 1.71615,0.733878 0.525,0 1.05001,-0.203228 0.53065,-0.208873 0.90888,-0.502424 v -1.05001 z"
           style="font-style:normal;font-variant:normal;font-weight:bold;font-stretch:normal;font-size:11.5614px;font-family:Arial;-inkscape-font-specification:'Arial, Bold';font-variant-ligatures:normal;font-variant-caps:normal;font-variant-numeric:normal;font-variant-east-asian:normal;fill:#132384;fill-opacity:1;stroke-width:0.245109"
           id="path907" />
        <path
           d="M 107.78763,67.072235 V 58.79635 h 6.13635 v 1.400013 h -4.46537 v 1.834695 h 4.15488 v 1.394368 h -4.15488 v 2.252441 h 4.62343 v 1.394368 z"
           style="font-style:normal;font-variant:normal;font-weight:bold;font-stretch:normal;font-size:11.5614px;font-family:Arial;-inkscape-font-specification:'Arial, Bold';font-variant-ligatures:normal;font-variant-caps:normal;font-variant-numeric:normal;font-variant-east-asian:normal;fill:#132384;fill-opacity:1;stroke-width:0.245109"
           id="path909" />
        <path
           d="M 115.50464,67.072235 V 58.79635 h 3.51697 q 1.32662,0 1.92502,0.225808 0.60403,0.220164 0.96533,0.790331 0.36129,0.570166 0.36129,1.304044 0,0.931461 -0.54758,1.541144 -0.54759,0.604038 -1.63712,0.762104 0.54194,0.316132 0.89195,0.694361 0.35565,0.37823 0.95404,1.343562 l 1.01049,1.614531 h -1.9984 l -1.20808,-1.800823 Q 119.095,64.30608 118.8579,64.05769 q -0.2371,-0.254034 -0.50243,-0.344358 -0.26532,-0.09597 -0.84114,-0.09597 h -0.33871 v 3.454872 z m 1.67098,-4.775852 h 1.2363 q 1.20243,0 1.50163,-0.101614 0.2992,-0.101614 0.46855,-0.350003 0.16936,-0.248389 0.16936,-0.620974 0,-0.417746 -0.22581,-0.67178 -0.22016,-0.25968 -0.62662,-0.327423 -0.20322,-0.02823 -1.21936,-0.02823 h -1.30405 z"
           style="font-style:normal;font-variant:normal;font-weight:bold;font-stretch:normal;font-size:11.5614px;font-family:Arial;-inkscape-font-specification:'Arial, Bold';font-variant-ligatures:normal;font-variant-caps:normal;font-variant-numeric:normal;font-variant-east-asian:normal;fill:#132384;fill-opacity:1;stroke-width:0.245109"
           id="path911" />
        <path
           d="M 123.79746,67.072235 V 58.79635 h 1.67098 v 8.275885 z"
           style="font-style:normal;font-variant:normal;font-weight:bold;font-stretch:normal;font-size:11.5614px;font-family:Arial;-inkscape-font-specification:'Arial, Bold';font-variant-ligatures:normal;font-variant-caps:normal;font-variant-numeric:normal;font-variant-east-asian:normal;fill:#132384;fill-opacity:1;stroke-width:0.245109"
           id="path913" />
        <path
           d="m 131.28301,62.60687 q -0.61533,-0.25968 -0.89759,-0.711297 -0.27661,-0.457263 -0.27661,-0.999203 0,-0.925815 0.64355,-1.529853 0.6492,-0.604038 1.84034,-0.604038 1.17985,0 1.82905,0.604038 0.65485,0.604038 0.65485,1.529853 0,0.575812 -0.2992,1.027429 -0.2992,0.445972 -0.84114,0.683071 0.68872,0.276616 1.04437,0.807266 0.36129,0.53065 0.36129,1.225011 0,1.145979 -0.73388,1.862921 -0.72823,0.716943 -1.94195,0.716943 -1.12904,0 -1.87986,-0.592748 -0.8863,-0.700007 -0.8863,-1.919373 0,-0.671781 0.33307,-1.230657 0.33307,-0.564521 1.05001,-0.869363 z m 0.32742,-1.597596 q 0,0.474198 0.26533,0.739523 0.27097,0.265325 0.71694,0.265325 0.45162,0 0.72259,-0.265325 0.27097,-0.27097 0.27097,-0.745168 0,-0.445972 -0.27097,-0.711297 -0.26533,-0.27097 -0.70565,-0.27097 -0.45727,0 -0.72824,0.27097 -0.27097,0.27097 -0.27097,0.716942 z m -0.14677,3.545195 q 0,0.654845 0.33307,1.021784 0.33871,0.366939 0.84113,0.366939 0.49114,0 0.81291,-0.350003 0.32178,-0.355649 0.32178,-1.021784 0,-0.581457 -0.32742,-0.931461 -0.32742,-0.355648 -0.82985,-0.355648 -0.58145,0 -0.86936,0.40081 -0.28226,0.40081 -0.28226,0.869363 z"
           style="font-style:normal;font-variant:normal;font-weight:bold;font-stretch:normal;font-size:11.5614px;font-family:Arial;-inkscape-font-specification:'Arial, Bold';font-variant-ligatures:normal;font-variant-caps:normal;font-variant-numeric:normal;font-variant-east-asian:normal;fill:#132384;fill-opacity:1;stroke-width:0.245109"
           id="path915" />
        <path
           d="m 140.41133,67.072235 h -1.58631 v -5.978283 q -0.86936,0.812911 -2.04921,1.202431 v -1.43953 q 0.62097,-0.203227 1.3492,-0.767749 0.72824,-0.570167 0.99921,-1.326625 h 1.28711 z"
           style="font-style:normal;font-variant:normal;font-weight:bold;font-stretch:normal;font-size:11.5614px;font-family:Arial;-inkscape-font-specification:'Arial, Bold';font-variant-ligatures:normal;font-variant-caps:normal;font-variant-numeric:normal;font-variant-east-asian:normal;fill:#132384;fill-opacity:1;stroke-width:0.245109"
           id="path917" />
      </g>
      <g
         aria-label="JAKARTA"
         id="text895"
         style="font-style:normal;font-variant:normal;font-weight:bold;font-stretch:normal;font-size:19.3036px;line-height:1.25;font-family:Arial;-inkscape-font-specification:'Arial, Bold';font-variant-ligatures:normal;font-variant-caps:normal;font-variant-numeric:normal;font-variant-east-asian:normal;fill:#132384;fill-opacity:1;stroke:none;stroke-width:0.245109">
        <path
           d="m 58.855288,70.564919 h 2.780548 v 8.746943 q 0,1.715457 -0.301619,2.639165 -0.4053,1.206475 -1.470391,1.94167 -1.065091,0.72577 -2.808825,0.72577 -2.045352,0 -3.148146,-1.140496 -1.102793,-1.149921 -1.112219,-3.364934 l 2.629739,-0.301618 q 0.04713,1.187623 0.348746,1.677754 0.452429,0.744621 1.376136,0.744621 0.933133,0 1.319582,-0.527833 0.386449,-0.537258 0.386449,-2.215012 z"
           style="font-style:normal;font-variant:normal;font-weight:bold;font-stretch:normal;font-size:19.3036px;font-family:Arial;-inkscape-font-specification:'Arial, Bold';font-variant-ligatures:normal;font-variant-caps:normal;font-variant-numeric:normal;font-variant-east-asian:normal;fill:#132384;fill-opacity:1;stroke-width:0.245109"
           id="path920" />
        <path
           d="m 77.06552,84.382828 h -3.035038 l -1.206475,-3.13872 h -5.523394 l -1.140496,3.13872 h -2.959634 l 5.38201,-13.817909 h 2.950208 z m -5.136944,-5.46684 -1.903968,-5.127519 -1.866266,5.127519 z"
           style="font-style:normal;font-variant:normal;font-weight:bold;font-stretch:normal;font-size:19.3036px;font-family:Arial;-inkscape-font-specification:'Arial, Bold';font-variant-ligatures:normal;font-variant-caps:normal;font-variant-numeric:normal;font-variant-east-asian:normal;fill:#132384;fill-opacity:1;stroke-width:0.245109"
           id="path922" />
        <path
           d="M 78.583041,84.382828 V 70.564919 h 2.789974 v 6.136056 l 5.6365,-6.136056 h 3.751383 l -5.202923,5.382009 5.485691,8.4359 h -3.61 l -3.798511,-6.484803 -2.26214,2.309268 v 4.175535 z"
           style="font-style:normal;font-variant:normal;font-weight:bold;font-stretch:normal;font-size:19.3036px;font-family:Arial;-inkscape-font-specification:'Arial, Bold';font-variant-ligatures:normal;font-variant-caps:normal;font-variant-numeric:normal;font-variant-east-asian:normal;fill:#132384;fill-opacity:1;stroke-width:0.245109"
           id="path924" />
        <path
           d="m 104.9464,84.382828 h -3.03503 l -1.20648,-3.13872 h -5.523393 l -1.140495,3.13872 h -2.959635 l 5.38201,-13.817909 h 2.950209 z m -5.13694,-5.46684 -1.903968,-5.127519 -1.866266,5.127519 z"
           style="font-style:normal;font-variant:normal;font-weight:bold;font-stretch:normal;font-size:19.3036px;font-family:Arial;-inkscape-font-specification:'Arial, Bold';font-variant-ligatures:normal;font-variant-caps:normal;font-variant-numeric:normal;font-variant-east-asian:normal;fill:#132384;fill-opacity:1;stroke-width:0.245109"
           id="path926" />
        <path
           d="M 106.43565,84.382828 V 70.564919 h 5.87214 q 2.21501,0 3.21412,0.377023 1.00854,0.367598 1.61178,1.319582 0.60323,0.951984 0.60323,2.17731 0,1.555222 -0.91428,2.573185 -0.91428,1.008538 -2.73342,1.272455 0.90486,0.527832 1.48925,1.159347 0.59381,0.631514 1.59292,2.243289 l 1.68718,2.695718 h -3.33666 l -2.01707,-3.006762 q -1.07452,-1.611775 -1.4704,-2.026501 -0.39587,-0.424152 -0.83887,-0.574961 -0.44301,-0.160235 -1.40441,-0.160235 h -0.56554 v 5.768459 z m 2.78997,-7.974046 h 2.0642 q 2.00765,0 2.50721,-0.169661 0.49956,-0.16966 0.78232,-0.584386 0.28277,-0.414726 0.28277,-1.036814 0,-0.697494 -0.37702,-1.121645 -0.3676,-0.433577 -1.04624,-0.546684 -0.33932,-0.04713 -2.03593,-0.04713 h -2.17731 z"
           style="font-style:normal;font-variant:normal;font-weight:bold;font-stretch:normal;font-size:19.3036px;font-family:Arial;-inkscape-font-specification:'Arial, Bold';font-variant-ligatures:normal;font-variant-caps:normal;font-variant-numeric:normal;font-variant-east-asian:normal;fill:#132384;fill-opacity:1;stroke-width:0.245109"
           id="path928" />
        <path
           d="M 123.47711,84.382828 V 72.902464 h -4.10013 v -2.337545 h 10.98081 v 2.337545 h -4.09071 v 11.480364 z"
           style="font-style:normal;font-variant:normal;font-weight:bold;font-stretch:normal;font-size:19.3036px;font-family:Arial;-inkscape-font-specification:'Arial, Bold';font-variant-ligatures:normal;font-variant-caps:normal;font-variant-numeric:normal;font-variant-east-asian:normal;fill:#132384;fill-opacity:1;stroke-width:0.245109"
           id="path930" />
        <path
           d="m 143.18601,84.382828 h -3.03504 l -1.20647,-3.13872 h -5.5234 l -1.14049,3.13872 h -2.95964 l 5.38201,-13.817909 h 2.95021 z m -5.13694,-5.46684 -1.90397,-5.127519 -1.86627,5.127519 z"
           style="font-style:normal;font-variant:normal;font-weight:bold;font-stretch:normal;font-size:19.3036px;font-family:Arial;-inkscape-font-specification:'Arial, Bold';font-variant-ligatures:normal;font-variant-caps:normal;font-variant-numeric:normal;font-variant-east-asian:normal;fill:#132384;fill-opacity:1;stroke-width:0.245109"
           id="path932" />
      </g>
    </g>
    <g
       id="g1061"
       transform="matrix(0.26347437,0,0,0.26347437,27.844855,19.491324)"
       style="stroke-width:3.79544">
      <path
         d="m -87.69932,-3.2607029 c 0,0 4.967393,1.516522 6.553588,11.8867061 1.585983,10.3700078 1.580903,33.6589218 13.512588,35.8124848 11.931721,2.153712 12.630609,-8.924573 12.76731,-9.580777 0.136913,-0.656194 16.937884,-54.541912 16.937884,-54.541912 l -4.217388,-5.187879 c 0,0 -9.242707,-4.594225 -21.26749,7.639685 -12.024889,12.2340149 -18.158107,14.9344938 -24.286492,13.9716921"
         style="fill:#ed1c24;fill-opacity:1;fill-rule:evenodd;stroke:none;stroke-width:1.33895"
         id="path1493" />
      <path
         d="m -84.929733,-2.1734065 c 0,0 4.371693,2.13659864 5.682792,10.3073198 1.311205,8.1707927 1.824108,32.2300997 12.170516,34.0974917 10.346408,1.867611 10.499407,-10.781804 10.617905,-11.350907 0.118674,-0.568994 14.687373,-47.295189 14.687373,-47.295189 l -1.268271,-6.69791 c 0,0 -9.143929,-4.038988 -20.830504,8.823889 -11.686822,12.8628069 -15.745495,12.9501195 -21.059811,12.1153055"
         style="fill:#2e3192;fill-opacity:1;fill-rule:evenodd;stroke:none;stroke-width:1.33895"
         id="path1495" />
      <path
         d="m -57.863034,94.424202 c 0,0 2.761191,-4.398786 13.185598,-3.221389 10.424512,1.177507 32.903512,7.265493 38.0989056,-3.689591 5.1952877,-10.954915 -5.3157966,-14.523126 -5.9135076,-14.826508 -0.597712,-0.303392 -48.22451,-30.59582 -48.22451,-30.59582 l -6.10937,2.716006 c 0,0 -6.848933,7.721805 1.819487,22.524713 8.66849,14.802807 9.673413,21.428396 7.143397,27.092589"
         style="fill:#ed1c24;fill-opacity:1;fill-rule:evenodd;stroke:none;stroke-width:1.33895"
         id="path1497" />
      <path
         d="m -56.090149,92.034808 c 0,0 3.204103,-3.661901 11.433809,-2.793396 8.229707,0.868495 31.587722,6.657479 36.0926939,-2.842017 4.5052176,-9.499386 -7.6652959,-12.951106 -8.1835969,-13.214108 -0.518301,-0.263101 -41.81729,-26.530786 -41.81729,-26.530786 l -6.796616,-0.525113 c 0,0 -6.28717,7.771515 3.076822,22.412322 9.363886,14.640706 8.388102,18.581479 6.194178,23.493098"
         style="fill:#2e3192;fill-opacity:1;fill-rule:evenodd;stroke:none;stroke-width:1.33895"
         id="path1499" />
      <path
         d="m 45.252462,95.176997 c 0,0 -2.802006,-4.373276 -13.215088,-3.099398 C 21.624573,93.351306 -0.79734925,99.646303 -6.0936405,88.739789 -11.390137,77.833425 -0.91231992,74.168303 -0.31742641,73.859311 0.2774571,73.550419 47.622456,42.819418 47.622456,42.819418 l 6.134317,2.659276 c 0,0 6.9197,7.658415 -1.6117,22.540803 -8.53119,14.882207 -9.474806,21.516697 -6.892611,27.1575"
         style="fill:#ed1c24;fill-opacity:1;fill-rule:evenodd;stroke:none;stroke-width:1.33895"
         id="path1501" />
      <path
         d="m 43.457562,92.803793 c 0,0 -3.237899,-3.631992 -11.459388,-2.687676 C 23.777146,91.060723 0.47356825,97.065098 -4.1191388,87.607592 -8.7115299,78.150326 3.4260757,74.586415 3.9421487,74.318694 4.4580518,74.050692 45.512674,47.402705 45.512674,47.402705 l 6.7915,-0.587793 c 0,0 6.358608,7.713095 -2.869607,22.439482 -9.228304,14.726607 -8.216118,18.65821 -5.977005,23.549399"
         style="fill:#2e3192;fill-opacity:1;fill-rule:evenodd;stroke:none;stroke-width:1.33895"
         id="path1503" />
      <path
         d="m 74.870377,-0.36270379 c 0,0 -5.05541,1.19101303 -7.311003,11.43642079 C 65.303681,21.318806 63.797672,44.558998 51.751371,45.933806 39.70507,47.308794 39.72655,36.208499 39.632569,35.544825 39.538669,34.881101 26.26956,-19.981205 26.26956,-19.981205 l 4.545117,-4.903399 c 0,0 9.521296,-3.984696 20.727073,9.003806 11.205706,12.9881843 17.150711,16.08109253 23.328627,15.51809421"
         style="fill:#ed1c24;fill-opacity:1;fill-rule:evenodd;stroke:none;stroke-width:1.33895"
         id="path1505" />
      <path
         d="m 72.03606,0.54259455 c 0,0 -4.501096,1.84830895 -6.339807,9.91679445 C 63.857752,18.527911 61.78476,42.503116 51.339078,43.695403 40.893367,44.88751 41.561351,32.254996 41.48007,31.679292 c -0.0814,-0.575483 -11.587618,-48.1487 -11.587618,-48.1487 l 1.70031,-6.601389 c 0,0 9.386605,-3.437184 20.214099,10.156895 C 62.634245,0.68021337 66.678949,1.0306984 72.03606,0.54259455"
         style="fill:#2e3192;fill-opacity:1;fill-rule:evenodd;stroke:none;stroke-width:1.33895"
         id="path1507" />
      <path
         d="m -6.0882405,-59.362881 c 0,0 -0.3856912,5.179378 8.7058114,10.413895 9.0915141,5.23448 30.8008921,13.664775 28.4867081,25.566403 -2.314224,11.901594 -12.893436,8.540469 -13.55461,8.430296 -0.661214,-0.110208 -56.973397,-3.967197 -56.973397,-3.967197 l -3.308103,-5.81011 c 0,0 -0.934614,-10.279097 14.824004,-17.056416 15.758583,-6.777285 20.4971997,-11.515902 21.8195865,-17.576871"
         style="fill:#ed1c24;fill-opacity:1;fill-rule:evenodd;stroke:none;stroke-width:1.33895"
         id="path1623" />
      <path
         d="m -6.0779404,-56.387482 c 0,0 0.4079924,4.848683 7.5490945,9.030299 7.1412122,4.181581 29.3810229,13.37377 27.3743219,23.694072 -2.006812,10.320302 -13.852702,5.881299 -14.426105,5.785697 -0.573304,-0.09557 -49.403814,-3.440077 -49.403814,-3.440077 l -5.78358,-3.608212 c 0,0 -0.452896,-9.985904 15.769484,-16.220192 16.2224147,-6.234289 17.7738968,-9.985904 18.9205986,-15.241587"
         style="fill:#2e3192;fill-opacity:1;fill-rule:evenodd;stroke:none;stroke-width:1.33895"
         id="path1625" />
      <path
         d="m -6.1412308,-36.473001 c 34.6233048,0 62.7016998,27.9876953 62.7016998,62.49931 0,34.511514 -28.078395,62.499209 -62.7016998,62.499209 -34.6235112,0 -62.7019062,-27.987695 -62.7019062,-62.499209 0,-34.5116147 28.078395,-62.49931 62.7019062,-62.49931"
         style="fill:#ffffff;fill-opacity:1;fill-rule:evenodd;stroke:none;stroke-width:1.33895"
         id="path1627" />
      <path
         d="m -6.1412308,-34.678103 c 33.2276858,0 60.2455958,26.5397893 60.8857788,59.508005 H -67.027248 c 0.640221,-32.9682157 27.65813,-59.508005 60.8860172,-59.508005"
         style="fill:#ed1c24;fill-opacity:1;fill-rule:evenodd;stroke:none;stroke-width:1.33895"
         id="path1629" />
      <path
         d="M 0.16276642,86.108393 C 2.3846695,85.879292 4.5707624,85.53061 6.7157551,85.070907 L 3.6370669,79.446324 Z"
         style="fill:#2e3192;fill-opacity:1;fill-rule:evenodd;stroke:none;stroke-width:1.33895"
         id="path1631" />
      <path
         d="m -12.179547,86.108393 c -2.221901,-0.229101 -4.407994,-0.577783 -6.552989,-1.037486 l 3.078692,-5.624583 z"
         style="fill:#2e3192;fill-opacity:1;fill-rule:evenodd;stroke:none;stroke-width:1.33895"
         id="path1633" />
      <path
         d="m -6.1412308,86.431605 c 1.176797,0 2.3447039,-0.0369 3.5049907,-0.10259 l -3.5895812,-6.66231 -3.4202172,6.66231 c 1.1602159,0.0657 2.3280858,0.10259 3.5048077,0.10259"
         style="fill:#2e3192;fill-opacity:1;fill-rule:evenodd;stroke:none;stroke-width:1.33895"
         id="path1635" />
      <path
         d="m -53.091644,64.379815 c 8.073002,9.732578 19.130715,16.9146 31.775011,20.149579 -9.285005,-20.198899 -31.54881,-20.150599 -31.775011,-20.149579"
         style="fill:#2e3192;fill-opacity:1;fill-rule:evenodd;stroke:none;stroke-width:1.33895"
         id="path1637" />
      <path
         d="M 40.771476,64.434816 C 32.698478,74.167393 21.640763,81.349415 8.9964685,84.584384 18.281473,64.385495 40.545275,64.433796 40.771476,64.434816"
         style="fill:#2e3192;fill-opacity:1;fill-rule:evenodd;stroke:none;stroke-width:1.33895"
         id="path1639" />
      <path
         d="m -61.15184,51.787201 c 1.705293,3.569801 3.750592,6.946691 6.092896,10.090999 27.724416,0.738825 34.809993,20.806693 34.809993,20.806693 l 2.755018,-6.061006 C -28.596731,53.429001 -60.992137,51.795101 -61.15184,51.787201"
         style="fill:#2e3192;fill-opacity:1;fill-rule:evenodd;stroke:none;stroke-width:1.33895"
         id="path1641" />
      <path
         d="m 48.831674,51.842201 c -1.70533,3.569791 -3.750623,6.946691 -6.092896,10.091 C 15.014364,62.672025 7.9287522,82.739894 7.9287522,82.739894 L 5.173766,76.678918 C 16.276561,53.483991 48.671973,51.850101 48.831674,51.842201"
         style="fill:#2e3192;fill-opacity:1;fill-rule:evenodd;stroke:none;stroke-width:1.33895"
         id="path1643" />
      <path
         d="m -65.532846,39.189017 c 0.811319,3.570291 1.939925,7.019991 3.351812,10.32101 36.962009,2.531175 46.165381,24.544085 46.165381,24.544085 l 3.480718,-5.915625 c -14.194508,-23.76759 -52.8822,-28.93409 -52.997911,-28.94947"
         style="fill:#2e3192;fill-opacity:1;fill-rule:evenodd;stroke:none;stroke-width:1.33895"
         id="path1645" />
      <path
         d="M 53.212679,39.244017 C 52.401365,42.814298 51.272758,46.264008 49.86087,49.565018 12.898862,52.096203 3.6954573,74.109113 3.6954573,74.109113 L 0.21476673,68.193518 C 14.40928,44.425897 53.096969,39.259397 53.212679,39.244017"
         style="fill:#2e3192;fill-opacity:1;fill-rule:evenodd;stroke:none;stroke-width:1.33895"
         id="path1647" />
      <path
         d="m -67.027248,26.923604 c 0.0683,3.519101 0.439703,6.964111 1.084615,10.312291 37.638213,3.34211 54.730084,28.698619 54.730084,28.698619 l 3.4162305,-5.06921 C -22.893726,35.519315 -67.027248,26.923604 -67.027248,26.923604"
         style="fill:#2e3192;fill-opacity:1;fill-rule:evenodd;stroke:none;stroke-width:1.33895"
         id="path1649" />
      <path
         d="m 54.707048,26.978605 c -0.0683,3.51909 -0.439672,6.964111 -1.084576,10.31229 -37.638222,3.34211 -54.7301231,28.69861 -54.7301231,28.69861 l -3.4162001,-5.0692 C 10.573558,35.574315 54.707048,26.978605 54.707048,26.978605"
         style="fill:#2e3192;fill-opacity:1;fill-rule:evenodd;stroke:none;stroke-width:1.33895"
         id="path1651" />
      <path
         d="m 3.2466446,-33.958507 c 0.7557245,0.116911 1.5063289,0.248708 2.2526333,0.392818 l 1.8017706,27.9803924 -28.4315905,0.3305879 1.500893,-27.9272983 c 0.732013,-0.1651 1.47013,-0.313691 2.211811,-0.452297 l -1.01279,26.0654087 23.3623926,-0.165312 z"
         style="fill:#231f20;fill-opacity:1;fill-rule:evenodd;stroke:none;stroke-width:1.33895"
         id="path1653" />
      <path
         d="m 3.4543658,-6.1083957 -22.0503058,0.2476155 0.0551,6.44669601 c 0,0 -6.887493,3.63657449 -6.336488,13.22398119 0.551003,9.587405 10.689378,24.133812 12.893392,26.337795 v 11.626109 l 10.0833102,0.0551 0.0551,-11.90159 c 0,0 10.9097943,-16.970804 11.6811789,-22.370597 C 10.607078,12.156885 10.93766,4.7734935 3.4440658,0.36550051 Z"
         style="fill:#231f20;fill-opacity:1;fill-rule:evenodd;stroke:none;stroke-width:1.33895"
         id="path1655" />
      <path
         d="m -7.6224345,-5.4116946 -8.7957025,0.1023056 -0.01,6.6534943 c 0,0 -7.347233,5.3027793 -6.52071,12.4106877 0.826488,7.107907 6.9977,19.229917 12.838289,25.511304 l -0.02011,10.670503 2.4655282,-0.0135 0.01538,-27.588989 -3.6633852,-4.269987 3.7124915,-4.290024 z"
         style="fill:#fff200;fill-opacity:1;fill-rule:evenodd;stroke:none;stroke-width:1.33895"
         id="path1657" />
      <path
         d="M -6.2021511,-5.4116946 1.3213633,-5.5156932 1.1809624,1.3715874 c 0,0 8.3983996,4.5590169 7.3818036,12.3832056 C 7.54616,21.579016 1.8214662,32.98471 -3.805237,39.266097 l 0.0194,10.670503 -2.375214,-0.0135 -0.0148,-27.588989 3.5291808,-4.269987 -3.5764911,-4.290024 z"
         style="fill:#fff200;fill-opacity:1;fill-rule:evenodd;stroke:none;stroke-width:1.33895"
         id="path1659" />
      <path
         d="m -2.3206482,67.811605 -3.7950024,-4.730007 -3.6299774,4.757528 3.6849777,5.417462 z"
         style="fill:#2e3192;fill-opacity:1;fill-rule:evenodd;stroke:none;stroke-width:1.33895"
         id="path1661" />
      <path
         d="m -7.3347448,76.075814 -3.7950062,-5.17 -3.629978,5.19748 3.685011,6.850911 z"
         style="fill:#2e3192;fill-opacity:1;fill-rule:evenodd;stroke:none;stroke-width:1.33895"
         id="path1663" />
      <path
         d="m 2.4179697,76.075814 -3.7950024,-5.17 -3.6300114,5.19748 3.6850118,6.850911 z"
         style="fill:#2e3192;fill-opacity:1;fill-rule:evenodd;stroke:none;stroke-width:1.33895"
         id="path1665" />
    </g>
  </g>
</svg>
